# xmcd
#
# Track frame offsets:
#	150
#	18300
#	31262
#	47954
#	58666
#	75801
#	88668
#	104120
#	117215
#	130100
#
# Disc length: 1954 seconds
#
# Revision: 1
# Processed by: cddbd v1.5.1PL0 Copyright (c) Steve Scherf et al.
# Submitted via: audiograbber 1.83.01
#
DISCID=7907a00a
DTITLE=Sonny Throckmorton - Hits Vol. 1
DYEAR=1900
DGENRE=country
TTITLE0=Last Cheaters Waltz
TTITLE1=Middle Age Crazy
TTITLE2=Friday Night Blues
TTITLE3=Trying to Love Two Women
TTITLE4=You Feel Good All Over
TTITLE5=The Way I Am
TTITLE6=Thinking of a Rendezvous
TTITLE7=I Feel Like Loving You Again
TTITLE8=Smooth Sailing
TTITLE9=I Wish I Was Eighteen Again
EXTD=
EXTT0=
EXTT1=
EXTT2=
EXTT3=
EXTT4=
EXTT5=
EXTT6=
EXTT7=
EXTT8=
EXTT9=
PLAYORDER=
